<svg width="29" height="28" fill="none" xmlns="http://www.w3.org/2000/svg"><path fill-rule="evenodd" clip-rule="evenodd" d="M14.197.182c-3.455 0-4 0-5.455.09C7.288.365 6.197.546 5.38.91c-.91.364-1.728.818-2.455 1.636C2.106 3.364 1.651 4.091 1.288 5 .924 5.91.742 6.91.65 8.364c-.09 1.454-.09 2-.09 5.727 0 3.818 0 4.273.09 5.727.091 1.455.273 2.546.637 3.364.363.909.818 1.727 1.636 2.454.818.819 1.546 1.273 2.455 1.637.909.363 1.909.545 3.363.636 1.455.091 2 .091 5.728.091 3.818 0 4.272 0 5.727-.09 1.454-.092 2.545-.274 3.364-.637.909-.364 1.727-.819 2.454-1.637.818-.818 1.273-1.545 1.636-2.454.364-.91.546-1.91.637-3.364.09-1.454.09-1.909.09-5.454v-.728c0-3.454 0-4-.09-5.454-.091-1.455-.273-2.546-.637-3.364-.363-.909-.818-1.727-1.636-2.454-.818-.819-1.545-1.273-2.454-1.637-.91-.363-1.91-.545-3.364-.636C18.742 0 18.287 0 14.742 0h-.545v.182Zm9.545 6.454a1.63 1.63 0 0 1-1.636 1.637 1.63 1.63 0 0 1-1.636-1.637c0-.909.727-1.636 1.636-1.636.818 0 1.636.727 1.636 1.636ZM14.56 18.727c-2.545 0-4.636-2.09-4.636-4.636 0-2.545 2.091-4.636 4.636-4.636 2.546 0 4.637 2.09 4.637 4.636 0 2.545-2.091 4.636-4.636 4.636Zm0-11.818c4 0 7.182 3.182 7.182 7.182s-3.181 7.182-7.182 7.182A7.14 7.14 0 0 1 7.38 14.09c0-4 3.273-7.182 7.181-7.182Zm0-4.273c3.728 0 4.182 0 5.637.091 1.364.091 2.09.273 2.636.455a6.09 6.09 0 0 1 1.637 1c.454.454.818.909 1 1.636.181.455.454 1.273.454 2.637.091 1.454.091 1.909.091 5.636 0 3.727 0 4.182-.09 5.636-.092 1.364-.274 2.091-.455 2.637a6.088 6.088 0 0 1-1 1.636c-.455.454-.91.818-1.637 1-.454.182-1.272.454-2.636.454-1.455.091-1.91.091-5.636.091-3.728 0-4.182 0-5.637-.09-1.363-.091-2.09-.273-2.636-.455a6.09 6.09 0 0 1-1.637-1c-.454-.454-.818-.91-1-1.636-.181-.455-.454-1.273-.454-2.637-.091-1.454-.091-1.909-.091-5.636 0-3.727 0-4.182.09-5.636.092-1.364.274-2.091.455-2.637a6.09 6.09 0 0 1 1-1.636c.455-.455.91-.818 1.637-1C6.742 3 7.56 2.727 8.924 2.727c1.455-.09 1.91-.09 5.636-.09Z" fill="#fff"/></svg>