<svg width="136" height="35" fill="none" xmlns="http://www.w3.org/2000/svg"><path d="m26.424 7.06-9.113 27.613h23.92V7.06H26.424Z" fill="url('#paint0_linear_601_30')"/><path d="M27.563 10.592h4.556l5.467 10.123-5.467 10.37h-4.556l5.011-10.37-5.01-10.123Z" fill="#fff"/><path d="M14.807 27.513 23.918 0H0v27.513h14.807Z" fill="url('#paint1_linear_601_30')"/><path d="M13.895 24.025H9.34L3.872 13.902 9.34 3.532h4.555l-5.01 10.37 5.01 10.123ZM44.829 12.567a16.36 16.36 0 0 1 2.712-.2c1.643 0 2.66.29 3.507.925.94.707 1.544 1.868 1.544 3.578 0 1.896-.657 3.129-1.49 3.838-.937.793-2.334 1.146-4.002 1.146-.76.011-1.519-.04-2.271-.152v-9.135Zm2.28 7.323c.162.023.324.032.486.026 1.479.02 2.573-.866 2.573-2.967 0-1.82-.986-2.676-2.363-2.676a2.97 2.97 0 0 0-.695.062v5.555ZM60.934 17.996H57.87v1.716h3.43v2.038h-5.714v-9.312h5.533v2.038H57.87v1.504h3.065v2.016ZM66.485 21.75l-2.71-9.312h2.508l.906 3.665a39.49 39.49 0 0 1 .708 3.257h.025c.205-1.136.45-2.214.7-3.215l.927-3.704h2.432l-2.793 9.313-2.703-.004ZM80.034 17.996h-3.07v1.716h3.427v2.038H74.68v-9.312h5.533v2.038h-3.249v1.504h3.07v2.016ZM83.436 12.438h2.284v7.222h3.287v2.09h-5.572v-9.312ZM99.426 17c0 2.995-1.643 4.903-4.273 4.903s-4.108-2.166-4.108-4.753c0-2.712 1.625-4.863 4.238-4.863 2.75 0 4.143 2.221 4.143 4.714Zm-5.959.105c0 1.75.699 2.822 1.79 2.822 1.091 0 1.753-1.168 1.753-2.846 0-1.604-.657-2.818-1.766-2.818-1.077 0-1.775 1.123-1.775 2.842h-.002ZM102.419 12.567a16.132 16.132 0 0 1 2.811-.2c1.228 0 2.108.241 2.706.742.31.265.559.606.728.995.169.39.252.816.243 1.246 0 .944-.289 1.77-.83 2.297-.688.674-1.69.974-2.84.974-.222 0-.417-.02-.557-.03v3.16h-2.261v-9.184Zm2.266 4.109c.173.03.348.041.523.036.887 0 1.444-.503 1.444-1.303 0-.694-.42-1.164-1.29-1.164a2.955 2.955 0 0 0-.677.064v2.367ZM117.157 17.996h-3.066v1.716h3.426v2.038h-5.71v-9.312h5.532v2.038h-3.248v1.504h3.066v2.016ZM120.563 12.567a17.044 17.044 0 0 1 2.756-.2c1.315 0 2.242.196 2.885.717.547.456.841 1.12.841 2.03 0 1.162-.797 1.987-1.461 2.253v.048c.567.266.873.86 1.091 1.669.257.945.537 2.3.702 2.659h-2.334c-.129-.27-.351-.998-.598-2.153-.232-1.116-.544-1.348-1.249-1.348h-.372v3.492h-2.261v-9.167Zm2.261 3.895h.595c.862 0 1.358-.459 1.358-1.157s-.421-1.094-1.18-1.102a3.324 3.324 0 0 0-.773.056v2.203ZM130.294 19.27c.69.367 1.445.564 2.212.577.781 0 1.167-.297 1.167-.767 0-.47-.383-.706-1.347-1.067-1.437-.556-2.395-1.423-2.395-2.808 0-1.647 1.272-2.91 3.426-2.91a5.18 5.18 0 0 1 2.301.475l-.478 1.993a4.185 4.185 0 0 0-1.854-.441c-.695 0-1.078.278-1.078.687 0 .472.452.662 1.528 1.102 1.537.613 2.224 1.512 2.224 2.808 0 1.615-1.15 2.977-3.635 2.977-1.029 0-2.025-.295-2.508-.567l.437-2.058Z" fill="#fff"/><defs><linearGradient id="paint0_linear_601_30" x1="-47653.3" y1="37644.7" x2="-47653.3" y2="33274.9" gradientUnits="userSpaceOnUse"><stop stop-color="#ACC0FE"/><stop offset="1" stop-color="#4B086D"/></linearGradient><linearGradient id="paint1_linear_601_30" x1="-50186.9" y1="38601" x2="-50186.9" y2="34247" gradientUnits="userSpaceOnUse"><stop stop-color="#ACC0FE"/><stop offset="1" stop-color="#4B086D"/></linearGradient></defs></svg>