<svg width="14" height="26" fill="none" xmlns="http://www.w3.org/2000/svg"><path d="m9.073 1.633.153.025h2.124v2.45H9.226c-.119 0-.234.008-.345.025a.711.711 0 0 0-.268.089 1.584 1.584 0 0 0-.346.293.799.799 0 0 0-.153.319l-.026.128-.013.09V8.98h4.145l-.589 2.449H8.075v12.245H5.62V11.429H2.345v-2.45H5.62v-3.8c0-.528.068-1 .204-1.416.137-.417.32-.744.55-.982a5.1 5.1 0 0 1 .704-.613c.238-.17.503-.289.793-.357.29-.068.52-.115.69-.14.17-.026.341-.038.512-.038Zm0-1.633c-1.057 0-2.004.255-2.84.765-1.5.902-2.25 2.373-2.25 4.414v2.168H2.344c-.443 0-.827.162-1.151.485A1.567 1.567 0 0 0 .708 8.98v2.449c0 .442.162.825.486 1.148.324.323.708.484 1.151.484h1.637v10.587c0 .46.158.846.474 1.161.315.315.703.472 1.163.472h2.456c.444 0 .827-.157 1.151-.472.324-.315.487-.702.487-1.16V13.06h1.918a1.6 1.6 0 0 0 .998-.331c.29-.221.486-.502.588-.842l.563-2.45c.153-.526.068-1.007-.256-1.44a1.546 1.546 0 0 0-1.304-.651H9.713V5.74h1.637c.443 0 .827-.162 1.15-.485.325-.323.487-.706.487-1.148V1.658c0-.459-.158-.846-.473-1.16a1.554 1.554 0 0 0-1.139-.472H9.278A.843.843 0 0 0 9.073 0Z" fill="#fff"/></svg>