<svg width="26" height="26" fill="none" xmlns="http://www.w3.org/2000/svg"><path d="M12.64 6.573a6.067 6.067 0 1 0 6.068 6.067 6.074 6.074 0 0 0-6.068-6.067Zm0 10.112a4.045 4.045 0 1 1 0-8.089 4.045 4.045 0 0 1 0 8.09ZM18.202 0H7.08A7.087 7.087 0 0 0 0 7.079v11.123a7.087 7.087 0 0 0 7.079 7.079h11.123a7.086 7.086 0 0 0 7.079-7.079V7.08A7.086 7.086 0 0 0 18.202 0Zm5.056 18.202a5.062 5.062 0 0 1-5.056 5.056H7.08a5.062 5.062 0 0 1-5.057-5.056V7.08A5.062 5.062 0 0 1 7.08 2.022h11.123a5.062 5.062 0 0 1 5.056 5.057v11.123ZM20.73 6.067a1.517 1.517 0 1 1-3.033 0 1.517 1.517 0 0 1 3.033 0Z" fill="#fff"/></svg>