<svg width="28" height="26" fill="none" xmlns="http://www.w3.org/2000/svg"><path d="M26.959.447a1.754 1.754 0 0 0-1.83-.319L1.421 9.668a1.81 1.81 0 0 0-.872.745 1.877 1.877 0 0 0 .19 2.199c.26.296.606.498.987.576l6.228 1.276v7.92c0 .364.105.72.302 1.023.198.304.479.54.807.68.33.139.69.175 1.04.104.349-.071.67-.247.92-.505l3.503-3.588 5.24 4.722a1.759 1.759 0 0 0 1.739.37c.297-.096.564-.271.775-.506.21-.236.358-.524.426-.835l4.831-21.595a1.88 1.88 0 0 0-.043-.986 1.84 1.84 0 0 0-.536-.821ZM1.823 11.405a.249.249 0 0 1 .033-.164.24.24 0 0 1 .13-.104L21.82 3.155l-13.274 9.82-6.518-1.335a.236.236 0 0 1-.145-.079.247.247 0 0 1-.06-.156ZM9.935 22.57a.255.255 0 0 1-.28.057.26.26 0 0 1-.116-.097.268.268 0 0 1-.043-.146v-6.821l3.872 3.49-3.433 3.517Zm11.27.926a.266.266 0 0 1-.172.192.251.251 0 0 1-.249-.053L9.96 13.878 26.014 2.002l-4.81 21.494Z" fill="#fff"/></svg>