<svg width="26" height="26" fill="none" xmlns="http://www.w3.org/2000/svg"><path fill-rule="evenodd" clip-rule="evenodd" d="M22.317 3.674A12.51 12.51 0 0 0 18.235.95 12.557 12.557 0 0 0 13.413 0C6.475 0 .827 5.62.824 12.527c0 2.208.58 4.363 1.68 6.263L.72 25.28l6.673-1.742a12.64 12.64 0 0 0 6.015 1.525h.006c6.936 0 12.584-5.62 12.587-12.527a12.405 12.405 0 0 0-.95-4.798 12.452 12.452 0 0 0-2.733-4.064ZM13.413 22.95h-.004c-1.874 0-3.714-.502-5.326-1.453l-.381-.226-3.96 1.034 1.056-3.841-.248-.394a10.358 10.358 0 0 1-1.6-5.542c.003-5.74 4.696-10.411 10.467-10.411a10.437 10.437 0 0 1 4.005.789 10.398 10.398 0 0 1 3.391 2.264 10.351 10.351 0 0 1 2.272 3.378c.525 1.265.793 2.62.79 3.989-.003 5.74-4.697 10.413-10.462 10.413Zm5.739-7.8c-.316-.157-1.86-.913-2.15-1.018-.287-.105-.496-.156-.706.156-.21.313-.814 1.018-.997 1.227-.184.21-.368.234-.682.078-.314-.156-1.328-.487-2.53-1.553-.934-.83-1.565-1.855-1.75-2.169-.183-.314-.019-.483.14-.639.141-.14.314-.366.47-.548.158-.183.21-.313.315-.522.105-.21.053-.392-.027-.549-.078-.157-.708-1.698-.97-2.325-.254-.607-.513-.526-.707-.534-.2-.008-.4-.012-.601-.011a1.163 1.163 0 0 0-.84.39c-.289.314-1.1 1.07-1.1 2.611 0 1.541 1.127 3.03 1.284 3.24.157.209 2.218 3.37 5.373 4.726.751.322 1.337.515 1.793.66.753.239 1.439.204 1.981.124.605-.09 1.86-.756 2.123-1.487.262-.732.262-1.358.184-1.49-.079-.13-.29-.21-.603-.366Z" fill="#fff"/></svg>