<svg width="25" height="26" fill="none" xmlns="http://www.w3.org/2000/svg"><path d="M21.934 2.464C21.307 1.886 18.77.044 13.111.02c0 0-6.671-.4-9.92 2.582C1.384 4.409.747 7.061.678 10.344.608 13.628.525 19.78 6.455 21.45h.005l-.005 2.548s-.04 1.032.642 1.24c.82.256 1.303-.529 2.088-1.373a77.353 77.353 0 0 0 1.472-1.664c4.059.34 7.174-.44 7.53-.553.82-.267 5.456-.86 6.206-7.012.78-6.35-.375-10.36-2.459-12.171Zm.687 11.707c-.637 5.135-4.395 5.461-5.086 5.683-.296.094-3.037.776-6.478.553 0 0-2.568 3.096-3.368 3.901-.261.262-.548.237-.543-.281 0-.341.02-4.232.02-4.232-.005 0-.005 0 0 0-5.027-1.392-4.73-6.631-4.676-9.372.054-2.74.573-4.987 2.103-6.498 2.75-2.493 8.414-2.123 8.414-2.123 4.785.02 7.076 1.462 7.61 1.946 1.762 1.51 2.66 5.125 2.004 10.423Zm-6.864-3.99c.02.425-.617.455-.637.03-.054-1.086-.563-1.615-1.61-1.674-.424-.025-.384-.662.035-.637 1.378.074 2.143.864 2.212 2.281Zm1.003.558c.05-2.093-1.26-3.733-3.743-3.915-.42-.03-.375-.667.044-.637 2.864.207 4.39 2.177 4.336 4.567-.005.425-.647.405-.637-.015Zm2.32.662c.005.425-.636.43-.636.005-.03-4.024-2.711-6.217-5.965-6.241-.42-.005-.42-.637 0-.637 3.639.024 6.567 2.538 6.602 6.873Zm-.557 4.844v.01c-.534.938-1.531 1.975-2.558 1.644l-.01-.015c-1.042-.291-3.496-1.555-5.046-2.79-.8-.632-1.531-1.377-2.094-2.093a16.02 16.02 0 0 1-1.52-2.301C6.241 8.799 6.01 7.95 6.01 7.95c-.33-1.028.702-2.025 1.645-2.558h.01c.454-.237.888-.158 1.18.192 0 0 .612.731.874 1.092.247.335.577.874.75 1.175.301.538.114 1.086-.182 1.313l-.593.474c-.301.242-.262.691-.262.691s.88 3.323 4.163 4.163c0 0 .449.04.691-.262l.474-.592c.227-.297.775-.484 1.313-.183.726.41 1.65 1.047 2.262 1.624.345.282.424.711.188 1.166Z" fill="#fff"/></svg>