<svg width="28" height="30" fill="none" xmlns="http://www.w3.org/2000/svg"><path d="M6.763 26.55c0-.49.161-1.024-.04-1.392-.203-.328-.768-.451-1.172-.656-2.142-1.147-3.798-2.786-4.647-5.08-.363-.902-.485-1.926-.646-2.91-.162-.983-.202-1.966-.243-2.95-.08-2.13.162-4.261.606-6.35.243-1.189.849-2.213 1.576-3.115C3.328 2.663 4.702 1.475 6.44.901 7.45.574 8.5.41 9.55.287 10.966.123 12.42 0 13.834 0c1.414 0 2.829.123 4.243.246.929.082 1.858.246 2.787.45 1.617.37 2.95 1.312 4.122 2.459 1.13 1.106 2.06 2.417 2.383 4.015.485 2.336.768 4.671.566 7.048a51.106 51.106 0 0 1-.525 4.261c-.283 1.639-1.172 2.91-2.303 4.056-1.172 1.23-2.505 2.213-4.202 2.582-1.293.287-2.626.41-3.92.573-.686.082-1.413.123-2.14.123-.809 0-1.657-.04-2.465-.04-.202 0-.485.122-.647.286-.929.942-1.777 1.885-2.666 2.827-.647.656-1.536.697-2.02.041-.202-.287-.283-.696-.324-1.024 0-.492.04-.901.04-1.352Zm1.131-1.27v2.46c0 .122.08.286.162.327.08.04.242-.082.323-.164.08-.041.121-.123.202-.205 1.374-1.434 2.707-2.827 4.08-4.22a.947.947 0 0 1 .647-.287c1.94 0 3.879-.164 5.818-.41 1.131-.164 2.182-.45 3.111-1.188 1.212-.983 2.344-2.049 2.626-3.647.283-1.516.445-3.073.526-4.63.04-1.27-.122-2.58-.243-3.851-.121-1.352-.444-2.663-1.414-3.77-.97-1.106-2.06-2.13-3.555-2.417a31.538 31.538 0 0 0-4.404-.533c-2.425-.123-4.89-.04-7.273.41-2.586.45-4.363 1.967-5.252 4.425-.404 1.106-.485 2.336-.566 3.524-.08 1.516-.04 3.073.08 4.589.041.901.162 1.844.486 2.704.727 2.008 2.181 3.319 4.12 4.098.364.163.526.327.526.737-.04.615 0 1.352 0 2.049Z" fill="#fff"/><path d="M15.127 16.554c.162-.082.364-.164.525-.287.202-.164.323-.41.525-.574.404-.41.89-.573 1.374-.287.889.615 1.778 1.23 2.626 1.926.323.246.445.615.243 1.025-.445 1.024-1.091 1.843-2.223 2.171a.97.97 0 0 1-.484 0c-3.758-1.352-6.91-3.483-9.01-7.006-.727-1.188-1.253-2.5-1.859-3.77-.323-.614-.202-1.188.162-1.762a4.222 4.222 0 0 1 1.697-1.475c.404-.205.848-.164 1.131.205.646.82 1.252 1.68 1.818 2.581.404.656.202 1.189-.363 1.68-.122.082-.203.164-.324.246-.363.287-.444.656-.283 1.066.687 1.925 1.94 3.36 3.88 4.097.16.082.322.082.565.164ZM20.945 12.785c0 .123.08.286.04.41-.08.163-.202.41-.363.45-.122.041-.404-.205-.445-.328-.121-.41-.121-.82-.162-1.229-.161-2.417-1.98-4.712-4.282-5.286-.485-.122-1.01-.163-1.536-.245-.12 0-.201-.041-.323-.041-.283-.041-.485-.123-.485-.451.04-.369.324-.45.607-.45 3.11.122 5.777 1.925 6.666 5.162.162.655.242 1.352.323 2.008 0-.041 0 0-.04 0Z" fill="#fff"/><path d="M19.207 12.334c-.04.082 0 .246-.081.328-.121.123-.283.286-.445.286-.12 0-.323-.204-.323-.327-.121-.451-.121-.984-.242-1.434-.404-1.557-1.697-2.623-3.313-2.787-.162 0-.283-.04-.445-.082-.242-.04-.404-.204-.363-.45.04-.287.242-.41.485-.41 2.383.164 4.404 1.68 4.686 4.343 0 .123.04.328.04.533Z" fill="#fff"/><path d="M15.046 9.302c1.373.04 2.424 1.229 2.343 2.54 0 .287-.121.533-.404.492-.162-.041-.323-.246-.485-.41-.04-.04 0-.123 0-.164-.202-1.065-.485-1.352-1.575-1.557-.283-.04-.485-.205-.485-.492.04-.286.242-.41.525-.41h.08Z" fill="#fff"/></svg>