<svg width="33" height="32" fill="none" xmlns="http://www.w3.org/2000/svg"><path d="m.379 32 2.255-8.588C1.371 21.062.65 18.441.65 15.82.65 7.051 7.777 0 16.44 0c8.662 0 15.79 7.05 15.79 15.82 0 8.677-7.038 15.818-15.79 15.818-2.617 0-5.143-.632-7.489-1.898L.38 32ZM9.4 26.486l.542.361c1.985 1.176 4.24 1.808 6.496 1.808 7.037 0 12.812-5.785 12.812-12.836 0-7.05-5.775-12.836-12.812-12.836C9.4 2.983 3.627 8.768 3.627 15.82c0 2.35.631 4.61 1.895 6.6l.36.541-1.263 4.791 4.782-1.265Z" fill="#fff"/><path fill-rule="evenodd" clip-rule="evenodd" d="M22.303 17.99c-.631-.362-1.534-.814-2.255-.543-.632.271-.993 1.175-1.354 1.627-.18.271-.45.271-.722.181-2.165-.904-3.88-2.35-5.142-4.339-.18-.271-.18-.542.09-.814.36-.452.812-.904.902-1.536.09-.543-.18-1.266-.451-1.808-.27-.633-.632-1.627-1.353-1.989-.632-.361-1.444-.18-1.985.271-.903.723-1.354 1.989-1.354 3.164 0 .362.09.633.09.994.18.814.542 1.537.993 2.17.27.542.631.994.992 1.537a15.506 15.506 0 0 0 4.331 4.067c.812.543 1.805.995 2.707 1.266 1.083.362 1.985.723 3.158.542 1.173-.27 2.346-.994 2.887-2.17.18-.36.18-.722.09-1.084 0-.723-.992-1.175-1.624-1.537Z" fill="#fff"/></svg>