<svg width="29" height="28" viewBox="0 0 29 28" fill="none" xmlns="http://www.w3.org/2000/svg">
<path fill-rule="evenodd" clip-rule="evenodd" d="M14.1969 0.181818C10.7424 0.181818 10.1969 0.181818 8.74236 0.272727C7.28782 0.363637 6.19691 0.545455 5.37873 0.909092C4.46964 1.27273 3.65146 1.72727 2.92418 2.54545C2.106 3.36364 1.65146 4.09091 1.28782 5C0.924183 5.90909 0.742365 6.90909 0.651455 8.36364C0.560546 9.81818 0.560547 10.3636 0.560547 14.0909C0.560547 17.9091 0.560546 18.3636 0.651455 19.8182C0.742365 21.2727 0.924183 22.3636 1.28782 23.1818C1.65146 24.0909 2.106 24.9091 2.92418 25.6364C3.74236 26.4545 4.46964 26.9091 5.37873 27.2727C6.28782 27.6364 7.28782 27.8182 8.74236 27.9091C10.1969 28 10.7424 28 14.4696 28C18.2878 28 18.7424 28 20.1969 27.9091C21.6515 27.8182 22.7424 27.6364 23.5605 27.2727C24.4696 26.9091 25.2878 26.4545 26.0151 25.6364C26.8333 24.8182 27.2878 24.0909 27.6515 23.1818C28.0151 22.2727 28.1969 21.2727 28.2878 19.8182C28.3787 18.3636 28.3787 17.9091 28.3787 14.3636V13.6364C28.3787 10.1818 28.3787 9.63636 28.2878 8.18182C28.1969 6.72727 28.0151 5.63636 27.6515 4.81818C27.2878 3.90909 26.8333 3.09091 26.0151 2.36364C25.1969 1.54545 24.4696 1.09091 23.5605 0.727273C22.6515 0.363637 21.6515 0.181819 20.1969 0.0909094C18.7424 3.50177e-07 18.2878 0 14.7424 0H14.1969V0.181818ZM23.7424 6.63636C23.7424 7.54545 23.0151 8.27273 22.106 8.27273C21.1969 8.27273 20.4696 7.54545 20.4696 6.63636C20.4696 5.72727 21.1969 5 22.106 5C22.9242 5 23.7424 5.72727 23.7424 6.63636ZM14.5605 18.7273C12.0151 18.7273 9.92418 16.6364 9.92418 14.0909C9.92418 11.5455 12.0151 9.45455 14.5605 9.45455C17.106 9.45455 19.1969 11.5455 19.1969 14.0909C19.1969 16.6364 17.106 18.7273 14.5605 18.7273ZM14.5605 6.90909C18.5605 6.90909 21.7424 10.0909 21.7424 14.0909C21.7424 18.0909 18.5605 21.2727 14.5605 21.2727C10.5605 21.2727 7.37873 18.0909 7.37873 14.0909C7.37873 10.0909 10.6515 6.90909 14.5605 6.90909ZM14.5605 2.63636C18.2878 2.63636 18.7424 2.63636 20.1969 2.72727C21.5606 2.81818 22.2878 3 22.8333 3.18182C23.4696 3.45455 23.9242 3.72727 24.4696 4.18182C24.9242 4.63636 25.2878 5.09091 25.4696 5.81818C25.6515 6.27273 25.9242 7.09091 25.9242 8.45455C26.0151 9.90909 26.0151 10.3636 26.0151 14.0909C26.0151 17.8182 26.0151 18.2727 25.9242 19.7273C25.8333 21.0909 25.6515 21.8182 25.4696 22.3636C25.1969 23 24.9242 23.4545 24.4696 24C24.0151 24.4545 23.5605 24.8182 22.8333 25C22.3787 25.1818 21.5606 25.4545 20.1969 25.4545C18.7424 25.5455 18.2878 25.5455 14.5605 25.5455C10.8333 25.5455 10.3787 25.5455 8.92418 25.4545C7.56055 25.3636 6.83327 25.1818 6.28782 25C5.65146 24.7273 5.19691 24.4545 4.65146 24C4.19691 23.5455 3.83328 23.0909 3.65146 22.3636C3.46964 21.9091 3.19691 21.0909 3.19691 19.7273C3.106 18.2727 3.106 17.8182 3.106 14.0909C3.106 10.3636 3.106 9.90909 3.19691 8.45455C3.28782 7.09091 3.46964 6.36364 3.65146 5.81818C3.92418 5.18182 4.19691 4.72727 4.65146 4.18182C5.106 3.72727 5.56055 3.36364 6.28782 3.18182C6.74237 3 7.56055 2.72727 8.92418 2.72727C10.3787 2.63636 10.8333 2.63636 14.5605 2.63636Z" fill="white"/>
</svg>
