<svg width="30" height="30" viewBox="0 0 30 30" fill="none" xmlns="http://www.w3.org/2000/svg">
<path fill-rule="evenodd" clip-rule="evenodd" d="M14.3362 9.14725C14.4233 9.05995 14.5268 8.99068 14.6406 8.94342C14.7545 8.89615 14.8766 8.87183 15 8.87183C15.1233 8.87183 15.2454 8.89615 15.3593 8.94342C15.4732 8.99068 15.5766 9.05995 15.6637 9.14725L26.9137 20.3973C27.0897 20.5733 27.1886 20.812 27.1886 21.061C27.1886 21.31 27.0897 21.5487 26.9137 21.7248C26.7377 21.9008 26.4989 21.9997 26.25 21.9997C26.001 21.9997 25.7622 21.9008 25.5862 21.7248L15 11.1366L4.41371 21.7248C4.23768 21.9008 3.99892 21.9997 3.74996 21.9997C3.50101 21.9997 3.26225 21.9008 3.08621 21.7248C2.91018 21.5487 2.81128 21.31 2.81128 21.061C2.81128 20.812 2.91018 20.5733 3.08621 20.3973L14.3362 9.14725Z" fill="black"/>
</svg>
