<svg width="30" height="30" viewBox="0 0 30 30" fill="none" xmlns="http://www.w3.org/2000/svg">
<path fill-rule="evenodd" clip-rule="evenodd" d="M14.3362 21.2888C14.4233 21.3761 14.5268 21.4454 14.6406 21.4926C14.7545 21.5399 14.8766 21.5642 15 21.5642C15.1233 21.5642 15.2454 21.5399 15.3593 21.4926C15.4732 21.4454 15.5766 21.3761 15.6637 21.2888L26.9137 10.0388C27.0897 9.86275 27.1886 9.62399 27.1886 9.37503C27.1886 9.12608 27.0897 8.88732 26.9137 8.71128C26.7377 8.53525 26.4989 8.43635 26.25 8.43635C26.001 8.43635 25.7622 8.53525 25.5862 8.71128L15 19.2994L4.41371 8.71128C4.23768 8.53525 3.99892 8.43635 3.74996 8.43635C3.50101 8.43635 3.26225 8.53525 3.08621 8.71128C2.91018 8.88732 2.81128 9.12608 2.81128 9.37503C2.81128 9.62399 2.91018 9.86275 3.08621 10.0388L14.3362 21.2888V21.2888Z" fill="black"/>
</svg>
