<svg width="28" height="30" viewBox="0 0 28 30" fill="none" xmlns="http://www.w3.org/2000/svg">
<path d="M6.76274 26.5508C6.76274 26.0592 6.92435 25.5265 6.72234 25.1577C6.52032 24.8299 5.95468 24.707 5.55064 24.5022C3.40927 23.3549 1.75274 21.716 0.904269 19.4214C0.540639 18.52 0.419429 17.4957 0.257816 16.5123C0.0962034 15.529 0.0557999 14.5456 0.0153967 13.5622C-0.0654098 11.4316 0.17701 9.30099 0.621446 7.21134C0.863865 6.02311 1.46991 4.99877 2.19717 4.09735C3.32846 2.66328 4.70218 1.47505 6.43952 0.901418C7.4496 0.573629 8.50008 0.409735 9.55056 0.286815C10.9647 0.122921 12.4192 0 13.8333 0C15.2474 0 16.6615 0.122921 18.0757 0.245841C19.0049 0.327788 19.9342 0.491682 20.8635 0.69655C22.4796 1.06531 23.8129 2.0077 24.9846 3.15496C26.1159 4.26125 27.0452 5.5724 27.3684 7.17036C27.8532 9.50586 28.1361 11.8413 27.934 14.2178C27.8128 15.6519 27.6512 17.045 27.4088 18.4791C27.126 20.118 26.2371 21.3882 25.1058 22.5354C23.9341 23.7646 22.6008 24.748 20.9039 25.1168C19.611 25.4036 18.2777 25.5265 16.9848 25.6904C16.2979 25.7723 15.5707 25.8133 14.8434 25.8133C14.0353 25.8133 13.1869 25.7723 12.3788 25.7723C12.1768 25.7723 11.894 25.8953 11.7323 26.0592C10.8031 27.0015 9.9546 27.9439 9.06573 28.8863C8.41927 29.5419 7.5304 29.5829 7.04556 28.9273C6.84355 28.6405 6.76274 28.2308 6.72234 27.903C6.72234 27.4113 6.76274 27.0015 6.76274 26.5508ZM7.89403 25.2807C7.89403 25.6904 7.89403 26.1001 7.89403 26.5099C7.89403 26.9196 7.89403 27.3293 7.89403 27.7391C7.89403 27.862 7.97484 28.0259 8.05564 28.0669C8.13645 28.1078 8.29806 27.9849 8.37887 27.903C8.45968 27.862 8.50008 27.78 8.58089 27.6981C9.9546 26.264 11.2879 24.8709 12.6616 23.4778C12.8232 23.3139 13.0656 23.191 13.3081 23.191C15.2474 23.191 17.1868 23.0271 19.1261 22.7813C20.2574 22.6174 21.3079 22.3306 22.2372 21.593C23.4493 20.6097 24.5806 19.5444 24.8634 17.9464C25.1462 16.4304 25.3078 14.8734 25.3886 13.3164C25.429 12.0462 25.2674 10.7351 25.1462 9.46488C25.025 8.11276 24.7018 6.8016 23.7321 5.69532C22.7624 4.58903 21.6715 3.5647 20.1766 3.27788C18.7221 2.99107 17.2676 2.82717 15.7727 2.74523C13.3485 2.62231 10.8839 2.70425 8.50008 3.15496C5.91427 3.60567 4.13653 5.12169 3.24766 7.5801C2.84362 8.68639 2.76282 9.91559 2.68201 11.1038C2.60121 12.6198 2.64161 14.1768 2.76282 15.6929C2.80322 16.5943 2.92443 17.5367 3.24766 18.3971C3.97492 20.4048 5.42943 21.716 7.36879 22.4945C7.73242 22.6584 7.89403 22.8222 7.89403 23.232C7.85363 23.8466 7.89403 24.5841 7.89403 25.2807Z" fill="white"/>
<path d="M15.1269 16.5537C15.2885 16.4718 15.4905 16.3899 15.6521 16.2669C15.8541 16.103 15.9753 15.8572 16.1773 15.6933C16.5814 15.2836 17.0662 15.1197 17.551 15.4065C18.4399 16.0211 19.3288 16.6357 20.1772 17.3322C20.5005 17.5781 20.6217 17.9468 20.4197 18.3566C19.9752 19.3809 19.3288 20.2004 18.1975 20.5282C18.0359 20.5692 17.8743 20.5692 17.7127 20.5282C13.9552 19.1761 10.8037 17.0454 8.70275 13.5217C7.9755 12.3335 7.45026 11.0223 6.84421 9.75214C6.52098 9.13754 6.64219 8.56391 7.00582 7.99028C7.45026 7.33471 8.0159 6.84302 8.70275 6.51524C9.10679 6.31037 9.55122 6.35134 9.83404 6.7201C10.4805 7.53957 11.0865 8.40002 11.6522 9.30143C12.0562 9.95701 11.8542 10.4897 11.2886 10.9813C11.1673 11.0633 11.0865 11.1452 10.9653 11.2272C10.6017 11.514 10.5209 11.8828 10.6825 12.2925C11.3694 14.2183 12.6219 15.6523 14.5612 16.3899C14.7228 16.4718 14.8844 16.4718 15.1269 16.5537Z" fill="white"/>
<path d="M20.9448 12.7846C20.9448 12.9075 21.0256 13.0714 20.9852 13.1944C20.9044 13.3582 20.7832 13.6041 20.6216 13.6451C20.5004 13.686 20.2175 13.4402 20.1771 13.3173C20.0559 12.9075 20.0559 12.4978 20.0155 12.0881C19.8539 9.67063 18.0358 7.37612 15.7328 6.80249C15.248 6.67957 14.7227 6.63859 14.1975 6.55665C14.0763 6.55665 13.9955 6.51567 13.8742 6.51567C13.5914 6.4747 13.3894 6.39275 13.3894 6.06497C13.4298 5.6962 13.7126 5.61426 13.9955 5.61426C17.1065 5.73718 19.7731 7.54001 20.662 10.7769C20.8236 11.4325 20.9044 12.129 20.9852 12.7846C20.9852 12.7436 20.9852 12.7846 20.9448 12.7846Z" fill="white"/>
<path d="M19.2067 12.3339C19.1663 12.4158 19.2067 12.5797 19.1259 12.6616C19.0047 12.7846 18.8431 12.9485 18.6815 12.9485C18.5603 12.9485 18.3582 12.7436 18.3582 12.6207C18.237 12.17 18.237 11.6373 18.1158 11.1866C17.7118 9.6296 16.4189 8.56429 14.8028 8.4004C14.6412 8.4004 14.52 8.35942 14.3583 8.31845C14.1159 8.27748 13.9543 8.11358 13.9947 7.86774C14.0351 7.58093 14.2371 7.45801 14.4796 7.45801C16.8633 7.6219 18.8835 9.13792 19.1663 11.8012C19.1663 11.9241 19.2067 12.129 19.2067 12.3339Z" fill="white"/>
<path d="M15.0457 9.30176C16.4194 9.34273 17.4699 10.531 17.3891 11.8421C17.3891 12.1289 17.2679 12.3748 16.9851 12.3338C16.8235 12.2928 16.6619 12.088 16.5002 11.9241C16.4598 11.8831 16.5002 11.8011 16.5002 11.7602C16.2982 10.6949 16.0154 10.408 14.9245 10.2032C14.6417 10.1622 14.4397 9.99831 14.4397 9.71149C14.4801 9.42468 14.6821 9.30176 14.9649 9.30176C15.0457 9.30176 15.0861 9.30176 15.0457 9.30176Z" fill="white"/>
</svg>
